<svg xmlns="http://www.w3.org/2000/svg" viewBox="0 0 512 512" id="itverification">
  <path fill="#ffffff" d="m450.3 7.5-30 70v397c0 16.6-13.4 30-30 30h-329l30-54.3V37.5c0-16.6 13.4-30 30-30h329z" class="colorffffff svgShape"></path>
  <path fill="#dbdbdb" d="M356.3 434.5h-328v40c0 16.6 13.4 30 30 30h333" class="colordadadc svgShape"></path>
  <path fill="#ffffff" d="M357.3 434.5V473c0 17.4 14.1 31.5 31.5 31.5s31.5-14.1 31.5-31.5v-38.5" class="colorffffff svgShape"></path>
  <path fill="#dbdbdb" d="M452 7.5c17.5 0 31.7 14.2 31.7 31.7v38.3h-63.4V39.2c0-17.5 14.2-31.7 31.7-31.7z" class="colordadadc svgShape"></path>
  <path fill="#c8c8c8" d="M153.2 52.5h206.3c8.3 0 15 6.7 15 15v21c0 8.3-6.7 15-15 15H153.2c-8.3 0-15-6.7-15-15v-21c0-8.3 6.8-15 15-15z" class="colorc8c5cc svgShape"></path>
  <path fill="#9d9d9d" d="M333.4 283.3c2.4 7.7-8.3 17.2-8.5 24.9-.1 8 10.1 17.8 7.6 25.2-2.6 7.4-16.8 8.9-21.5 15.2-4.7 6.2-2.1 20.3-8.6 24.8-6.3 4.4-18.6-2.7-26.3-.4-7.7 2.4-13.9 15.2-21.6 15-8-.1-13.7-13.2-21-15.8-7.4-2.6-20 4.2-26.3-.6-6.2-4.7-3.2-18.6-7.8-25.1-4.4-6.3-18.6-8.2-20.9-15.9-2.4-7.7 8.3-17.2 8.5-24.9.1-8-10.1-17.8-7.6-25.2 2.6-7.4 16.8-8.9 21.5-15.2 4.7-6.2 2.1-20.3 8.6-24.8 6.3-4.4 18.6 2.7 26.3.4s13.9-15.2 21.6-15c8 .1 13.7 13.2 21 15.8 7.4 2.6 20-4.2 26.3.6 6.2 4.7 3.2 18.6 7.8 25.1 4.4 6.3 18.5 8.2 20.9 15.9z" class="color52bbe9 svgShape"></path>
  <path fill="#7e7e7e" d="M333.4 283.3c-2.4-7.7-16.5-9.6-20.9-15.9-4.6-6.5-1.6-20.4-7.8-25.1-6.3-4.7-18.9 2-26.3-.6-7.4-2.5-13.1-15.6-21-15.8-5.5-.1-10.3 6.5-15.4 11.1 2.1 2.1 4.2-11.1 6.4-10.3 7.4 2.6 20 10.8 26.3 15.6 6.2 4.7 3.2 18.6 7.8 25.1 4.4 6.3 18.6 8.2 20.9 15.9 2.4 7.7-8.3 17.2-8.5 24.9-.1 8 10.1 17.8 7.6 25.2-2.6 7.4-16.8 8.9-21.5 15.2-4.7 6.2-2.1 20.3-8.6 24.8-6.3 4.4-18.6 12.3-26.3 14.6-2.2.7-4.2-12.9-6.2-11.1 4.7 4.7 9.1 11 14.6 11.1 7.7.1 13.8-12.7 21.6-15 7.7-2.4 20 4.8 26.3.4 6.5-4.6 4-18.6 8.6-24.8 4.7-6.3 18.9-7.7 21.5-15.2 2.5-7.4-7.7-17.2-7.6-25.2.2-7.7 10.9-17.1 8.5-24.9z" class="color1cabe1 svgShape"></path>
  <path fill="#ffffff" d="M375.3 156H136.6c-4.1 0-7.5-3.4-7.5-7.5s3.4-7.5 7.5-7.5h238.8c4.1 0 7.5 3.4 7.5 7.5s-3.4 7.5-7.6 7.5zm0 45H136.6c-4.1 0-7.5-3.4-7.5-7.5s3.4-7.5 7.5-7.5h238.8c4.1 0 7.5 3.4 7.5 7.5s-3.4 7.5-7.6 7.5z" class="colorffffff svgShape"></path>
  <path fill="#303030" d="M452 0H121.3c-20.7 0-37.5 16.8-37.5 37.5V427H28.3c-4.1 0-7.5 3.4-7.5 7.5v40c0 20.7 16.8 37.5 37.5 37.5h333.8c19.8-1 35.7-17.4 35.7-37.5V85h55.9c4.1 0 7.5-3.4 7.5-7.5V39.2C491.2 17.6 473.6 0 452 0zM58.3 497c-12.4 0-22.5-10.1-22.5-22.5V442h314v31c0 9 3.1 17.4 8.3 24H58.3zM412.8 39.2V473c0 13.2-10.8 24-24 24s-24-10.8-24-24v-38.5c0-4.1-3.4-7.5-7.5-7.5H98.8V37.5c0-12.4 10.1-22.5 22.5-22.5h299.9c-5.2 6.7-8.4 15.1-8.4 24.2zM476.2 70h-48.4V39.2c0-13.3 10.8-24.2 24.2-24.2s24.2 10.8 24.2 24.2V70zm-323 41h206.2c12.4 0 22.5-10.1 22.5-22.5v-21c0-12.4-10.1-22.5-22.5-22.5H153.2c-12.4 0-22.5 10.1-22.5 22.5v21c.1 12.4 10.1 22.5 22.5 22.5zm-7.4-43.5c0-4.1 3.4-7.5 7.5-7.5h206.2c4.1 0 7.5 3.4 7.5 7.5v21c0 4.1-3.4 7.5-7.5 7.5H153.2c-4.1 0-7.5-3.4-7.5-7.5v-21zm194.8 213.6c-2.3-7.4-9.4-10.9-15.1-13.8-2.5-1.3-6-3-6.9-4.2-1-1.4-1.4-5.2-1.8-8.3-.7-6.2-1.6-13.9-7.6-18.5-6-4.5-13.8-3.3-20-2.2-2.9.5-6.8 1.1-8.4.6-1.5-.5-4.2-3.4-6.1-5.6-4.3-4.7-9.6-10.5-17.2-10.6h-.3c-7.3 0-12.4 5.2-16.9 9.8-2.2 2.3-5 5.1-6.7 5.6-1.7.5-5.6-.3-8.7-.9-6.4-1.3-13.6-2.7-19.7 1.5-6.3 4.4-7.4 12.2-8.4 18.4-.4 2.9-1 6.8-2 8-1 1.3-4.6 3-7.3 4.2-5.7 2.6-12.8 5.9-15.3 13-2.4 7.1 1.1 14 4 19.6 1.4 2.8 3.2 6.2 3.2 7.9 0 1.5-1.9 4.9-3.3 7.3-3.1 5.6-7 12.5-4.8 19.9 2.3 7.4 9.4 10.9 15.1 13.8 2.5 1.3 6 3 6.9 4.2 1 1.4 1.4 5.2 1.8 8.3.7 6.2 1.6 13.9 7.6 18.5 6 4.5 13.8 3.3 20 2.2 2.9-.5 6.8-1.1 8.4-.6 1.5.5 4.2 3.4 6.1 5.6 4.3 4.7 9.6 10.5 17.2 10.6h.3c7.3 0 12.4-5.2 16.9-9.8 2.2-2.3 5-5.1 6.7-5.6 1.7-.5 5.6.3 8.7.9 6.4 1.3 13.6 2.7 19.7-1.5 6.3-4.4 7.4-12.2 8.4-18.4.4-2.9 1-6.8 2-8 1-1.3 4.6-3 7.3-4.2 5.7-2.6 12.8-5.9 15.3-13 2.4-7.1-1.1-14-4-19.6-1.4-2.8-3.2-6.2-3.2-7.9 0-1.5 1.9-4.9 3.3-7.3 3.1-5.6 7-12.5 4.8-19.9zm-18.3 42c1.2 2.3 3.4 6.5 3.2 7.8-.6 1.2-5 3.2-7.4 4.3-4.6 2.1-9.8 4.5-13 8.8-3.2 4.3-4.1 9.9-4.8 14.8-.4 2.6-1.1 7.5-2.1 8.3-1.2.5-5.6-.3-8.2-.9-5-1-10.7-2.1-16-.5-5.3 1.6-9.4 5.7-13 9.4-1.9 1.9-5 5.1-6.3 5.3-1.3-.2-4.7-3.8-6.5-5.7-3.4-3.7-7.2-7.9-12.3-9.6-2.2-.7-4.4-1-6.6-1-3.1 0-6.2.5-9.1 1-2.6.4-7.4 1.2-8.5.6-.9-1-1.5-5.7-1.8-8.3-.6-5-1.3-10.7-4.4-15.2-3-4.3-8-6.8-12.5-9-2.3-1.1-7-3.5-7.4-4.8-.4-1.2 2.2-5.9 3.5-8.1 2.4-4.3 5.2-9.2 5.3-14.5.1-5.5-2.5-10.6-4.8-15.1-1.2-2.3-3.4-6.5-3.2-7.8.6-1.2 5-3.2 7.4-4.3 4.6-2.1 9.8-4.5 13-8.8 3.2-4.3 4.1-9.9 4.8-14.8.4-2.6 1.1-7.5 2.1-8.3 1.2-.5 5.6.3 8.2.9 5 1 10.7 2.1 16 .5 5.3-1.6 9.4-5.7 13-9.4 1.9-1.9 5-5.1 6.3-5.3 1.3.1 4.7 3.8 6.5 5.7 3.4 3.7 7.2 7.9 12.3 9.6 5.1 1.8 10.8.8 15.7 0 2.6-.4 7.4-1.2 8.5-.6.9 1 1.5 5.7 1.8 8.3.6 5 1.3 10.7 4.4 15.2 3 4.3 8 6.8 12.5 9 2.3 1.1 7 3.5 7.4 4.8.4 1.2-2.2 5.9-3.5 8.1-2.4 4.3-5.2 9.2-5.3 14.5-.1 5.5 2.5 10.6 4.8 15.1zM276.7 283l-32.1 32.1-9.3-9.3c-2.9-2.9-7.7-2.9-10.6 0-2.9 2.9-2.9 7.7 0 10.6l14.7 14.7c1.4 1.4 3.3 2.2 5.3 2.2s3.9-.8 5.3-2.2l37.4-37.4c2.9-2.9 2.9-7.7 0-10.6-3.1-3-7.8-3-10.7-.1zM136.6 156h238.8c4.1 0 7.5-3.4 7.5-7.5s-3.4-7.5-7.5-7.5H136.6c-4.1 0-7.5 3.4-7.5 7.5s3.3 7.5 7.5 7.5zm0 45h238.8c4.1 0 7.5-3.4 7.5-7.5s-3.4-7.5-7.5-7.5H136.6c-4.1 0-7.5 3.4-7.5 7.5s3.3 7.5 7.5 7.5z" class="color3c3b41 svgShape"></path>
</svg>