<svg fill="#000000" height="200px" width="200px" version="1.2" baseProfile="tiny" id="Layer_1" xmlns="http://www.w3.org/2000/svg" xmlns:xlink="http://www.w3.org/1999/xlink" viewBox="0 0 256 256" xml:space="preserve">
  <g id="SVGRepo_bgCarrier" stroke-width="0"></g>
  <g id="SVGRepo_tracerCarrier" stroke-linecap="round" stroke-linejoin="round"></g>
  <g id="SVGRepo_iconCarrier">
    <!-- Hand Path -->
    <path d="M211,197.5h-60c-1.2,2.6-2.8,5.2-5,7.4c-4.5,4.5-10.4,6.9-16.8,6.9c-6.4,0-12.3-2.4-16.8-6.9l-42.2-42.2 c-1.9-1.9-1.9-4.7,0-6.6c1.9-1.9,4.7-1.9,6.6,0l42.5,42.5c5.5,5.5,14.5,5.5,20.2,0c5.5-5.5,5.5-14.5,0-20.2l-52.9-52.9 c-8.8-8.8-20.2-13-31.5-13.3h-55v56.9h26.6c6.2,0,12.1,2.4,16.8,6.9l36.8,36.8c9,9,21.6,13.3,33.2,13.3H211 c7.8,0,14.2-6.4,14.2-14.2S218.8,197.5,211,197.5z" fill="none" stroke="#000000" stroke-width="5"/>
    
    <!-- Circle (TAX) -->
    <circle cx="180" cy="100" r="40" stroke="#000000" stroke-width="5" fill="none"/>
    <text x="180" y="100" dominant-baseline="middle" text-anchor="middle" font-size="30" font-family="Arial" fill="#000000">TAX</text>
  </g>
</svg>